<?xml version="1.0" encoding="UTF-8"?>
<svg xmlns="http://www.w3.org/2000/svg" xmlns:xlink="http://www.w3.org/1999/xlink" width="150px" height="154px" viewBox="0 0 150 153" version="1.1">
<defs>
<filter id="alpha" filterUnits="objectBoundingBox" x="0%" y="0%" width="100%" height="100%">
  <feColorMatrix type="matrix" in="SourceGraphic" values="0 0 0 0 1 0 0 0 0 1 0 0 0 0 1 0 0 0 1 0"/>
</filter>
<mask id="mask0">
  <g filter="url(#alpha)">
<rect x="0" y="0" width="150" height="153" style="fill:rgb(0%,0%,0%);fill-opacity:0.996078;stroke:none;"/>
  </g>
</mask>
<clipPath id="clip1">
  <rect x="0" y="0" width="150" height="153"/>
</clipPath>
<g id="surface5" clip-path="url(#clip1)">
<path style=" stroke:none;fill-rule:evenodd;fill:rgb(63.921569%,4.313725%,3.921569%);fill-opacity:1;" d="M 125.253906 20.410156 C 125.796875 21.332031 126.25 22.339844 126.621094 23.433594 C 127.972656 25.394531 129.84375 26.554688 132.238281 26.910156 C 128.484375 27.523438 126.207031 29.691406 125.40625 33.410156 C 124.851562 29.636719 122.675781 27.46875 118.875 26.910156 C 122.71875 26.363281 124.84375 24.195312 125.253906 20.410156 Z M 125.253906 20.410156 "/>
</g>
<mask id="mask1">
  <g filter="url(#alpha)">
<rect x="0" y="0" width="150" height="153" style="fill:rgb(0%,0%,0%);fill-opacity:0.996078;stroke:none;"/>
  </g>
</mask>
<clipPath id="clip2">
  <rect x="0" y="0" width="150" height="153"/>
</clipPath>
<g id="surface8" clip-path="url(#clip2)">
<path style=" stroke:none;fill-rule:evenodd;fill:rgb(9.019608%,16.470588%,21.176471%);fill-opacity:1;" d="M 32.640625 41.878906 C 35.714844 49.785156 37.992188 57.949219 39.472656 66.371094 C 39.777344 73.535156 39.980469 80.691406 40.082031 87.839844 C 39.253906 85.925781 38.746094 83.910156 38.5625 81.792969 C 38.1875 74.910156 37.074219 68.15625 35.222656 61.53125 C 34.253906 59.558594 33.039062 57.746094 31.578125 56.089844 C 30.527344 55.089844 29.363281 54.285156 28.085938 53.671875 C 29.3125 49.605469 30.828125 45.675781 32.640625 41.878906 Z M 32.640625 41.878906 "/>
</g>
<mask id="mask2">
  <g filter="url(#alpha)">
<rect x="0" y="0" width="150" height="153" style="fill:rgb(0%,0%,0%);fill-opacity:0.447059;stroke:none;"/>
  </g>
</mask>
<clipPath id="clip3">
  <rect x="0" y="0" width="150" height="153"/>
</clipPath>
<g id="surface11" clip-path="url(#clip3)">
<path style=" stroke:none;fill-rule:evenodd;fill:rgb(43.529412%,49.019608%,36.862745%);fill-opacity:1;" d="M 43.269531 55.183594 C 43.066406 56.390625 42.863281 57.601562 42.660156 58.8125 C 43.132812 55.359375 42.425781 52.183594 40.535156 49.285156 C 40.816406 49.171875 41.066406 49.023438 41.296875 48.832031 C 42.539062 50.777344 43.195312 52.894531 43.269531 55.183594 Z M 43.269531 55.183594 "/>
</g>
<mask id="mask3">
  <g filter="url(#alpha)">
<rect x="0" y="0" width="150" height="153" style="fill:rgb(0%,0%,0%);fill-opacity:0.956863;stroke:none;"/>
  </g>
</mask>
<clipPath id="clip4">
  <rect x="0" y="0" width="150" height="153"/>
</clipPath>
<g id="surface14" clip-path="url(#clip4)">
<path style=" stroke:none;fill-rule:evenodd;fill:rgb(19.215686%,33.333333%,37.254902%);fill-opacity:1;" d="M 57.539062 143.476562 C 45.597656 143.65625 33.652344 143.707031 21.710938 143.625 C 21.542969 143.511719 21.441406 143.359375 21.40625 143.171875 C 21.367188 142.949219 21.417969 142.746094 21.558594 142.566406 C 33.539062 143.070312 45.53125 143.371094 57.539062 143.476562 Z M 57.539062 143.476562 "/>
</g>
</defs>
<g id="surface1">
<path style=" stroke:none;fill-rule:evenodd;fill:rgb(8.627451%,16.078431%,21.176471%);fill-opacity:1;" d="M 133.148438 132.289062 C 129.097656 132.289062 125.050781 132.289062 121.003906 132.289062 C 121.789062 120.039062 120.828125 107.945312 118.117188 96.003906 C 116.734375 90.375 114.054688 85.488281 110.070312 81.339844 C 109.691406 81.097656 109.289062 80.949219 108.855469 80.882812 C 108.347656 80.179688 107.640625 79.875 106.730469 79.976562 C 105.96875 79.519531 105.160156 79.117188 104.300781 78.769531 C 105.113281 77.960938 105.921875 77.15625 106.730469 76.347656 C 108.429688 73.914062 109.242188 71.195312 109.160156 68.183594 C 108.609375 61.234375 108.050781 54.28125 107.488281 47.320312 C 106 42.804688 105.089844 38.167969 104.757812 33.410156 C 103.371094 28.554688 100.285156 25.328125 95.496094 23.734375 C 95.496094 23.535156 95.394531 23.433594 95.191406 23.433594 C 94.34375 23.058594 93.53125 22.605469 92.761719 22.074219 C 90.058594 18.914062 86.816406 16.496094 83.046875 14.816406 C 80.109375 14.714844 77.175781 14.613281 74.242188 14.515625 C 72 13.625 69.722656 12.867188 67.410156 12.246094 C 65.972656 12.339844 64.605469 12.691406 63.308594 13.304688 C 59.328125 12.863281 56.34375 14.324219 54.351562 17.6875 C 53.644531 20.605469 52.988281 23.527344 52.378906 26.457031 C 52.582031 28.472656 53.289062 30.289062 54.503906 31.898438 C 53.8125 33.28125 53.40625 34.742188 53.289062 36.285156 C 54.21875 41.988281 55.585938 47.582031 57.386719 53.066406 C 58.441406 54.65625 59.402344 56.269531 60.273438 57.902344 C 60.777344 59.515625 61.585938 60.925781 62.703125 62.136719 C 63.210938 64.054688 63.96875 65.871094 64.980469 67.578125 C 65.183594 67.984375 65.183594 68.386719 64.980469 68.789062 C 63.875 70.34375 62.710938 71.855469 61.488281 73.324219 C 60.671875 73.628906 59.863281 73.933594 59.058594 74.230469 C 58.226562 74.203125 57.417969 74.304688 56.628906 74.535156 C 56.855469 73.460938 56.855469 72.351562 56.628906 71.207031 C 56.042969 70.84375 55.433594 70.894531 54.808594 71.359375 C 54.136719 71.976562 53.53125 72.628906 52.984375 73.324219 C 52.175781 73.726562 51.570312 74.332031 51.164062 75.140625 C 50.332031 76.839844 49.269531 78.453125 47.976562 79.976562 C 47.007812 81.710938 46.042969 83.421875 45.089844 85.117188 C 45.140625 80.378906 46.101562 75.84375 47.976562 71.511719 C 49.535156 63.117188 50.042969 54.648438 49.492188 46.113281 C 48.050781 39.933594 46.230469 33.886719 44.027344 27.96875 C 43.804688 26.648438 43.550781 25.335938 43.269531 24.039062 C 46.25 21.023438 49.386719 18.148438 52.683594 15.421875 C 61.417969 9.117188 71.132812 7 81.832031 9.070312 C 89.660156 11.132812 96.542969 14.863281 102.480469 20.257812 C 113.183594 30.632812 121.027344 42.878906 126.011719 56.996094 C 134.6875 81.496094 137.066406 106.589844 133.148438 132.289062 Z M 133.148438 132.289062 "/>
<path style=" stroke:none;fill-rule:evenodd;fill:rgb(59.215686%,60%,59.607843%);fill-opacity:1;" d="M 82.4375 11.640625 C 82.996094 11.683594 83.097656 11.886719 82.742188 12.246094 C 82.5 12.109375 82.398438 11.90625 82.4375 11.640625 Z M 82.4375 11.640625 "/>
<path style=" stroke:none;fill-rule:evenodd;fill:rgb(87.058824%,84.313725%,80.784314%);fill-opacity:1;" d="M 95.191406 23.433594 C 94.449219 25.421875 94.144531 27.488281 94.28125 29.632812 C 94.332031 30.890625 94.382812 32.152344 94.433594 33.410156 C 94.835938 35.121094 95.191406 36.832031 95.496094 38.550781 C 95.421875 39.9375 95.066406 41.246094 94.433594 42.484375 C 94.144531 46.382812 94.296875 50.265625 94.886719 54.125 C 94.804688 54.589844 94.703125 55.042969 94.585938 55.484375 C 94.179688 56.492188 93.472656 57.199219 92.460938 57.601562 C 92.511719 55.683594 92.460938 53.769531 92.308594 51.855469 C 91.109375 49.957031 89.792969 48.144531 88.359375 46.414062 C 86.601562 44.957031 84.933594 43.394531 83.351562 41.726562 C 81.402344 40.253906 79.277344 39.09375 76.972656 38.25 C 75.96875 37.453125 75.058594 36.542969 74.242188 35.527344 C 74.207031 35.34375 74.105469 35.191406 73.9375 35.074219 C 75.042969 34.019531 75.953125 32.859375 76.671875 31.597656 C 80.351562 32.148438 83.792969 33.359375 86.992188 35.226562 C 87.355469 35.121094 87.355469 34.96875 86.992188 34.773438 C 82.726562 32.148438 78.070312 30.734375 73.027344 30.539062 C 70.015625 29.648438 67.386719 28.136719 65.132812 26.003906 C 61.246094 24.953125 58.054688 22.886719 55.566406 19.804688 C 55.472656 20.230469 55.574219 20.632812 55.871094 21.015625 C 58.402344 23.535156 61.386719 25.296875 64.828125 26.304688 C 67.945312 29.117188 71.589844 30.882812 75.757812 31.597656 C 75.425781 32.992188 74.664062 34.097656 73.480469 34.925781 C 73.335938 35.210938 73.285156 35.511719 73.328125 35.832031 C 72.519531 36.839844 71.710938 37.847656 70.902344 38.855469 C 65.3125 43.332031 62.480469 49.175781 62.398438 56.390625 C 62.148438 57.546875 61.996094 58.753906 61.941406 60.019531 C 60.914062 54.808594 61.417969 49.769531 63.460938 44.902344 C 64.429688 43.15625 65.339844 41.441406 66.195312 39.761719 C 62 45.097656 60.277344 51.144531 61.03125 57.902344 C 60.796875 58.234375 60.546875 58.234375 60.273438 57.902344 C 59.402344 56.269531 58.441406 54.65625 57.386719 53.066406 C 55.585938 47.582031 54.21875 41.988281 53.289062 36.285156 C 53.40625 34.742188 53.8125 33.28125 54.503906 31.898438 C 53.289062 30.289062 52.582031 28.472656 52.378906 26.457031 C 52.988281 23.527344 53.644531 20.605469 54.351562 17.6875 C 56.34375 14.324219 59.328125 12.863281 63.308594 13.304688 C 64.605469 12.691406 65.972656 12.339844 67.410156 12.246094 C 69.722656 12.867188 72 13.625 74.242188 14.515625 C 77.175781 14.613281 80.109375 14.714844 83.046875 14.816406 C 86.816406 16.496094 90.058594 18.914062 92.761719 22.074219 C 93.53125 22.605469 94.34375 23.058594 95.191406 23.433594 Z M 95.191406 23.433594 "/>
<use xlink:href="#surface5" mask="url(#mask0)"/>
<path style=" stroke:none;fill-rule:evenodd;fill:rgb(87.058824%,84.313725%,80.784314%);fill-opacity:1;" d="M 95.496094 23.734375 C 100.285156 25.328125 103.371094 28.554688 104.757812 33.410156 C 105.089844 38.167969 106 42.804688 107.488281 47.320312 C 108.050781 54.28125 108.609375 61.234375 109.160156 68.183594 C 109.242188 71.195312 108.429688 73.914062 106.730469 76.347656 C 103.433594 74.015625 101.359375 70.890625 100.507812 66.976562 C 100.304688 62.429688 101.417969 58.195312 103.847656 54.277344 C 105.296875 50.703125 105.496094 47.074219 104.453125 43.390625 C 102.722656 37.929688 100.191406 32.890625 96.863281 28.273438 C 96.8125 28.371094 96.761719 28.472656 96.710938 28.574219 C 100.253906 33.765625 102.835938 39.410156 104.453125 45.507812 C 104.925781 49.773438 104.015625 53.703125 101.71875 57.300781 C 99.742188 61.066406 99.289062 65 100.355469 69.09375 C 100.316406 69.277344 100.214844 69.375 100.050781 69.394531 C 98.804688 67.378906 98.148438 65.160156 98.078125 62.742188 C 97.53125 61.351562 97.074219 59.941406 96.710938 58.507812 C 96.917969 53.234375 97.121094 47.941406 97.316406 42.632812 C 96.269531 38.800781 95.410156 34.917969 94.738281 30.992188 C 94.492188 28.515625 94.746094 26.097656 95.496094 23.734375 Z M 95.496094 23.734375 "/>
<path style=" stroke:none;fill-rule:evenodd;fill:rgb(24.313725%,36.470588%,23.137255%);fill-opacity:1;" d="M 43.269531 24.039062 C 43.550781 25.335938 43.804688 26.648438 44.027344 27.96875 C 46.230469 33.886719 48.050781 39.933594 49.492188 46.113281 C 50.042969 54.648438 49.535156 63.117188 47.976562 71.511719 C 46.101562 75.84375 45.140625 80.378906 45.089844 85.117188 C 44.324219 86.796875 43.617188 88.511719 42.964844 90.257812 C 41.714844 85.742188 41.007812 81.105469 40.839844 76.347656 C 41.257812 71.558594 42.015625 66.824219 43.117188 62.136719 C 43.269531 59.820312 43.320312 57.503906 43.269531 55.183594 C 43.195312 52.894531 42.539062 50.777344 41.296875 48.832031 C 41.066406 49.023438 40.816406 49.171875 40.535156 49.285156 C 42.425781 52.183594 43.132812 55.359375 42.660156 58.8125 C 42.464844 63.210938 41.808594 67.542969 40.6875 71.8125 C 40.417969 73.921875 40.265625 76.039062 40.234375 78.164062 C 40.941406 82.597656 41.648438 87.035156 42.359375 91.46875 C 42.359375 91.667969 42.359375 91.871094 42.359375 92.070312 C 42.054688 91.871094 41.75 91.667969 41.449219 91.46875 C 41.425781 91.910156 41.527344 92.3125 41.75 92.675781 C 35.894531 92.230469 31.492188 89.511719 28.542969 84.511719 C 27.453125 80.734375 25.886719 77.207031 23.835938 73.929688 C 22.730469 71.570312 20.910156 70.007812 18.371094 69.242188 C 15.667969 68.5 12.9375 68.296875 10.171875 68.636719 C 8.878906 68.101562 8.625 67.246094 9.414062 66.066406 C 12.246094 62.640625 15.082031 59.214844 17.914062 55.789062 C 20.847656 53.027344 24.238281 52.324219 28.085938 53.671875 C 29.363281 54.285156 30.527344 55.089844 31.578125 56.089844 C 33.039062 57.746094 34.253906 59.558594 35.222656 61.53125 C 37.074219 68.15625 38.1875 74.910156 38.5625 81.792969 C 38.746094 83.910156 39.253906 85.925781 40.082031 87.839844 C 39.980469 80.691406 39.777344 73.535156 39.472656 66.371094 C 37.992188 57.949219 35.714844 49.785156 32.640625 41.878906 C 31.980469 38.734375 31.574219 35.5625 31.425781 32.355469 C 31.207031 29.609375 31.765625 27.039062 33.097656 24.644531 C 35.039062 22.003906 36.859375 19.28125 38.5625 16.480469 C 39.375 15.417969 40.234375 14.410156 41.144531 13.457031 C 41.539062 13.632812 41.792969 13.9375 41.902344 14.363281 C 41.832031 17.675781 42.289062 20.902344 43.269531 24.039062 Z M 43.269531 24.039062 "/>
<path style=" stroke:none;fill-rule:evenodd;fill:rgb(81.568627%,78.431373%,74.509804%);fill-opacity:1;" d="M 77.277344 15.570312 C 77.90625 17.902344 78.871094 20.121094 80.160156 22.222656 C 81.707031 24.394531 83.328125 26.511719 85.019531 28.574219 C 87.214844 30.074219 89.238281 31.785156 91.09375 33.714844 C 91.664062 34.339844 91.964844 35.046875 92.003906 35.832031 C 90.941406 34.570312 89.878906 33.3125 88.816406 32.050781 C 87.050781 31.046875 85.484375 29.785156 84.109375 28.273438 C 82.792969 26.558594 81.476562 24.84375 80.160156 23.132812 C 78.511719 20.855469 77.550781 18.335938 77.277344 15.570312 Z M 77.277344 15.570312 "/>
<path style=" stroke:none;fill-rule:evenodd;fill:rgb(45.882353%,52.156863%,41.568627%);fill-opacity:1;" d="M 36.894531 32.203125 C 36.691406 30.589844 36.488281 28.976562 36.285156 27.363281 C 36.238281 26.425781 36.390625 25.519531 36.742188 24.644531 C 36.894531 27.160156 36.941406 29.679688 36.894531 32.203125 Z M 36.894531 32.203125 "/>
<path style=" stroke:none;fill-rule:evenodd;fill:rgb(81.176471%,78.039216%,74.117647%);fill-opacity:1;" d="M 74.242188 35.527344 C 73.902344 35.546875 73.601562 35.648438 73.328125 35.832031 C 73.285156 35.511719 73.335938 35.210938 73.480469 34.925781 C 74.664062 34.097656 75.425781 32.992188 75.757812 31.597656 C 71.589844 30.882812 67.945312 29.117188 64.828125 26.304688 C 61.386719 25.296875 58.402344 23.535156 55.871094 21.015625 C 55.574219 20.632812 55.472656 20.230469 55.566406 19.804688 C 58.054688 22.886719 61.246094 24.953125 65.132812 26.003906 C 67.386719 28.136719 70.015625 29.648438 73.027344 30.539062 C 78.070312 30.734375 82.726562 32.148438 86.992188 34.773438 C 87.355469 34.96875 87.355469 35.121094 86.992188 35.226562 C 83.792969 33.359375 80.351562 32.148438 76.671875 31.597656 C 75.953125 32.859375 75.042969 34.019531 73.9375 35.074219 C 74.105469 35.191406 74.207031 35.34375 74.242188 35.527344 Z M 74.242188 35.527344 "/>
<path style=" stroke:none;fill-rule:evenodd;fill:rgb(70.980392%,70.196078%,68.627451%);fill-opacity:1;" d="M 49.039062 29.785156 C 49.597656 29.824219 49.699219 30.027344 49.34375 30.386719 C 49.101562 30.25 49 30.046875 49.039062 29.785156 Z M 49.039062 29.785156 "/>
<path style=" stroke:none;fill-rule:evenodd;fill:rgb(74.901961%,74.509804%,66.27451%);fill-opacity:1;" d="M 36.285156 27.363281 C 36.488281 28.976562 36.691406 30.589844 36.894531 32.203125 C 37.105469 34.417969 37.15625 36.636719 37.042969 38.855469 C 36.945312 38.753906 36.84375 38.652344 36.742188 38.550781 C 36.394531 34.832031 36.242188 31.101562 36.285156 27.363281 Z M 36.285156 27.363281 "/>
<path style=" stroke:none;fill-rule:evenodd;fill:rgb(26.27451%,22.352941%,19.215686%);fill-opacity:1;" d="M 74.242188 35.527344 C 75.058594 36.542969 75.96875 37.453125 76.972656 38.25 C 76.0625 38.324219 75.300781 38.023438 74.695312 37.34375 C 74.59375 37.644531 74.492188 37.949219 74.394531 38.25 C 74.011719 37.796875 73.707031 37.292969 73.480469 36.738281 C 72.75 37.621094 71.890625 38.324219 70.902344 38.855469 C 71.710938 37.847656 72.519531 36.839844 73.328125 35.832031 C 73.601562 35.648438 73.902344 35.546875 74.242188 35.527344 Z M 74.242188 35.527344 "/>
<path style=" stroke:none;fill-rule:evenodd;fill:rgb(80%,76.470588%,72.54902%);fill-opacity:1;" d="M 95.191406 23.433594 C 95.394531 23.433594 95.496094 23.535156 95.496094 23.734375 C 94.746094 26.097656 94.492188 28.515625 94.738281 30.992188 C 95.410156 34.917969 96.269531 38.800781 97.316406 42.632812 C 97.121094 47.941406 96.917969 53.234375 96.710938 58.507812 C 96.09375 57.683594 95.585938 56.777344 95.191406 55.789062 C 95.054688 55.546875 94.851562 55.445312 94.585938 55.484375 C 94.703125 55.042969 94.804688 54.589844 94.886719 54.125 C 94.296875 50.265625 94.144531 46.382812 94.433594 42.484375 C 95.066406 41.246094 95.421875 39.9375 95.496094 38.550781 C 95.191406 36.832031 94.835938 35.121094 94.433594 33.410156 C 94.382812 32.152344 94.332031 30.890625 94.28125 29.632812 C 94.144531 27.488281 94.449219 25.421875 95.191406 23.433594 Z M 95.191406 23.433594 "/>
<use xlink:href="#surface8" mask="url(#mask1)"/>
<path style=" stroke:none;fill-rule:evenodd;fill:rgb(69.411765%,69.019608%,67.45098%);fill-opacity:1;" d="M 116.144531 43.996094 C 116.703125 44.035156 116.800781 44.238281 116.449219 44.601562 C 116.203125 44.460938 116.105469 44.261719 116.144531 43.996094 Z M 116.144531 43.996094 "/>
<use xlink:href="#surface11" mask="url(#mask2)"/>
<path style=" stroke:none;fill-rule:evenodd;fill:rgb(81.568627%,78.431373%,74.117647%);fill-opacity:1;" d="M 62.398438 56.390625 C 62.335938 58.320312 62.4375 60.234375 62.703125 62.136719 C 61.585938 60.925781 60.777344 59.515625 60.273438 57.902344 C 60.546875 58.234375 60.796875 58.234375 61.03125 57.902344 C 60.277344 51.144531 62 45.097656 66.195312 39.761719 C 65.339844 41.441406 64.429688 43.15625 63.460938 44.902344 C 61.417969 49.769531 60.914062 54.808594 61.941406 60.019531 C 61.996094 58.753906 62.148438 57.546875 62.398438 56.390625 Z M 62.398438 56.390625 "/>
<path style=" stroke:none;fill-rule:evenodd;fill:rgb(9.803922%,16.862745%,21.568627%);fill-opacity:1;" d="M 94.585938 55.484375 C 94.851562 55.445312 95.054688 55.546875 95.191406 55.789062 C 95.585938 56.777344 96.09375 57.683594 96.710938 58.507812 C 97.074219 59.941406 97.53125 61.351562 98.078125 62.742188 C 98.148438 65.160156 98.804688 67.378906 100.050781 69.394531 C 100.851562 71.9375 101.257812 74.558594 101.265625 77.257812 C 99.011719 76.488281 96.886719 75.480469 94.886719 74.230469 C 93.695312 73.398438 92.53125 72.492188 91.398438 71.511719 C 90.996094 70.546875 90.84375 69.539062 90.941406 68.488281 C 92.238281 64.980469 92.742188 61.351562 92.460938 57.601562 C 93.472656 57.199219 94.179688 56.492188 94.585938 55.484375 Z M 94.585938 55.484375 "/>
<path style=" stroke:none;fill-rule:evenodd;fill:rgb(81.960784%,80%,76.862745%);fill-opacity:1;" d="M 114.625 58.8125 C 116.824219 58.679688 118.390625 59.6875 119.332031 61.835938 C 119.871094 64.96875 118.605469 66.582031 115.535156 66.671875 C 117.253906 64.757812 117.507812 62.640625 116.296875 60.324219 C 115.777344 59.757812 115.222656 59.253906 114.625 58.8125 Z M 114.625 58.8125 "/>
<path style=" stroke:none;fill-rule:evenodd;fill:rgb(73.72549%,73.72549%,65.098039%);fill-opacity:1;" d="M 41.449219 91.46875 C 40.152344 90.085938 38.6875 88.878906 37.042969 87.839844 C 35.558594 85.410156 34.542969 82.789062 34.007812 79.976562 C 33.980469 75.730469 33.777344 71.496094 33.402344 67.277344 C 32.644531 65.566406 31.734375 63.953125 30.667969 62.441406 C 29.113281 61.082031 27.289062 60.378906 25.203125 60.324219 C 22.785156 60.582031 20.457031 61.1875 18.21875 62.136719 C 17.695312 62.105469 17.644531 61.953125 18.066406 61.683594 C 25.722656 57.617188 31.035156 59.582031 34.007812 67.578125 C 34.300781 69.179688 34.453125 70.792969 34.464844 72.417969 C 33.765625 77.535156 34.625 82.375 37.042969 86.933594 C 38.359375 88.039062 39.675781 89.148438 40.992188 90.257812 C 41.230469 90.632812 41.382812 91.039062 41.449219 91.46875 Z M 41.449219 91.46875 "/>
<path style=" stroke:none;fill-rule:evenodd;fill:rgb(75.294118%,74.901961%,66.666667%);fill-opacity:1;" d="M 43.269531 55.183594 C 43.320312 57.503906 43.269531 59.820312 43.117188 62.136719 C 42.015625 66.824219 41.257812 71.558594 40.839844 76.347656 C 40.636719 76.953125 40.433594 77.558594 40.234375 78.164062 C 40.265625 76.039062 40.417969 73.921875 40.6875 71.8125 C 41.808594 67.542969 42.464844 63.210938 42.660156 58.8125 C 42.863281 57.601562 43.066406 56.390625 43.269531 55.183594 Z M 43.269531 55.183594 "/>
<path style=" stroke:none;fill-rule:evenodd;fill:rgb(85.882353%,63.529412%,45.098039%);fill-opacity:1;" d="M 76.972656 38.25 C 79.277344 39.09375 81.402344 40.253906 83.351562 41.726562 C 84.933594 43.394531 86.601562 44.957031 88.359375 46.414062 C 89.792969 48.144531 91.109375 49.957031 92.308594 51.855469 C 92.460938 53.769531 92.511719 55.683594 92.460938 57.601562 C 92.742188 61.351562 92.238281 64.980469 90.941406 68.488281 C 89.222656 71.160156 87.199219 73.628906 84.867188 75.894531 C 81.644531 77.898438 78.203125 78.402344 74.542969 77.40625 C 73.34375 79.105469 72.027344 80.71875 70.597656 82.246094 C 76.894531 85.6875 82.867188 85.183594 88.511719 80.734375 C 90.714844 78.589844 92.839844 76.425781 94.886719 74.230469 C 96.886719 75.480469 99.011719 76.488281 101.265625 77.257812 C 101.265625 77.859375 101.265625 78.464844 101.265625 79.070312 C 102.292969 79.082031 103.304688 78.980469 104.300781 78.769531 C 105.160156 79.117188 105.96875 79.519531 106.730469 79.976562 C 104.75 81.898438 103.386719 84.214844 102.632812 86.933594 C 100.257812 93.753906 99.753906 100.710938 101.113281 107.796875 C 101.398438 108.753906 101.855469 109.613281 102.480469 110.367188 C 100.636719 115.164062 97.902344 119.347656 94.28125 122.914062 C 95.140625 123.71875 96.050781 124.472656 97.015625 125.183594 C 98.933594 126.035156 100.753906 127.042969 102.480469 128.207031 C 103.066406 128.453125 103.675781 128.601562 104.300781 128.660156 C 105.300781 129.292969 106.414062 129.699219 107.640625 129.867188 C 107.003906 126.863281 106.496094 123.839844 106.125 120.796875 C 105.640625 117.800781 105.386719 114.777344 105.363281 111.726562 C 101.941406 103.058594 101.941406 94.390625 105.363281 85.722656 C 106.3125 83.929688 107.476562 82.316406 108.855469 80.882812 C 109.289062 80.949219 109.691406 81.097656 110.070312 81.339844 C 114.054688 85.488281 116.734375 90.375 118.117188 96.003906 C 120.828125 107.945312 121.789062 120.039062 121.003906 132.289062 C 109.363281 132.289062 97.722656 132.289062 86.082031 132.289062 C 85.828125 131.78125 85.421875 131.429688 84.867188 131.230469 C 83.75 131.09375 82.636719 131.144531 81.527344 131.378906 C 80.667969 131.351562 79.855469 131.152344 79.097656 130.777344 C 70.722656 126.367188 64.347656 119.914062 59.96875 111.425781 C 58.414062 116.277344 56.792969 121.117188 55.113281 125.9375 C 54.8125 126.328125 54.507812 126.730469 54.199219 127.148438 C 53.367188 128.710938 52.453125 130.222656 51.46875 131.683594 C 47.46875 132.183594 43.519531 132.082031 39.625 131.378906 C 38.105469 128.230469 37.394531 124.902344 37.5 121.402344 C 39.566406 115.574219 42.652344 110.332031 46.761719 105.679688 C 49.492188 100.847656 51.71875 95.808594 53.441406 90.558594 C 53.644531 89.453125 53.644531 88.34375 53.441406 87.234375 C 52.039062 83.335938 51.28125 79.304688 51.164062 75.140625 C 51.570312 74.332031 52.175781 73.726562 52.984375 73.324219 C 54.835938 73.714844 56.050781 73.007812 56.628906 71.207031 C 56.855469 72.351562 56.855469 73.460938 56.628906 74.535156 C 56.792969 75.742188 56.996094 76.953125 57.238281 78.164062 C 57.738281 77.511719 58.292969 76.90625 58.90625 76.347656 C 59.058594 75.648438 59.109375 74.945312 59.058594 74.230469 C 59.863281 73.933594 60.671875 73.628906 61.488281 73.324219 C 62.710938 71.855469 63.875 70.34375 64.980469 68.789062 C 65.183594 68.386719 65.183594 67.984375 64.980469 67.578125 C 63.96875 65.871094 63.210938 64.054688 62.703125 62.136719 C 62.4375 60.234375 62.335938 58.320312 62.398438 56.390625 C 62.480469 49.175781 65.3125 43.332031 70.902344 38.855469 C 71.890625 38.324219 72.75 37.621094 73.480469 36.738281 C 73.707031 37.292969 74.011719 37.796875 74.394531 38.25 C 74.492188 37.949219 74.59375 37.644531 74.695312 37.34375 C 75.300781 38.023438 76.0625 38.324219 76.972656 38.25 Z M 76.972656 38.25 "/>
<path style=" stroke:none;fill-rule:evenodd;fill:rgb(19.215686%,31.764706%,33.333333%);fill-opacity:1;" d="M 69.988281 67.277344 C 68.691406 67.890625 67.984375 67.484375 67.863281 66.066406 C 68.335938 65.234375 69.042969 64.984375 69.988281 65.3125 C 70.375 65.964844 70.375 66.621094 69.988281 67.277344 Z M 69.988281 67.277344 "/>
<path style=" stroke:none;fill-rule:evenodd;fill:rgb(93.333333%,83.921569%,70.980392%);fill-opacity:1;" d="M 69.988281 67.277344 C 70.375 66.621094 70.375 65.964844 69.988281 65.3125 C 69.042969 64.984375 68.335938 65.234375 67.863281 66.066406 C 67.5625 66.042969 67.308594 66.144531 67.105469 66.371094 C 67.207031 65.765625 67.308594 65.160156 67.410156 64.554688 C 65.882812 63.890625 64.820312 62.785156 64.21875 61.230469 C 66.035156 60.761719 67.855469 60.359375 69.6875 60.019531 C 69.640625 61.070312 70.148438 61.671875 71.203125 61.835938 C 71.585938 64.679688 70.828125 67.199219 68.925781 69.394531 C 68.945312 68.546875 69.300781 67.84375 69.988281 67.277344 Z M 69.988281 67.277344 "/>
<path style=" stroke:none;fill-rule:evenodd;fill:rgb(83.137255%,52.941176%,36.862745%);fill-opacity:1;" d="M 87.601562 57.902344 C 90.449219 58.34375 91.105469 59.855469 89.574219 62.441406 C 87.613281 63.871094 86.449219 63.367188 86.082031 60.929688 C 86.105469 59.671875 86.613281 58.664062 87.601562 57.902344 Z M 87.601562 57.902344 "/>
<path style=" stroke:none;fill-rule:evenodd;fill:rgb(56.470588%,42.745098%,31.764706%);fill-opacity:1;" d="M 66.347656 57.300781 C 66.144531 57.300781 66.042969 57.398438 66.042969 57.601562 C 65.492188 57.519531 64.988281 57.316406 64.523438 56.996094 C 64.625 56.894531 64.726562 56.796875 64.828125 56.695312 C 65.386719 56.855469 65.890625 57.054688 66.347656 57.300781 Z M 66.347656 57.300781 "/>
<path style=" stroke:none;fill-rule:evenodd;fill:rgb(35.294118%,27.843137%,22.352941%);fill-opacity:1;" d="M 66.042969 57.601562 C 66.042969 57.398438 66.144531 57.300781 66.347656 57.300781 C 68.539062 57.574219 70.511719 57.070312 72.265625 55.789062 C 72.46875 55.988281 72.46875 56.191406 72.265625 56.390625 C 70.34375 57.476562 68.269531 57.878906 66.042969 57.601562 Z M 66.042969 57.601562 "/>
<path style=" stroke:none;fill-rule:evenodd;fill:rgb(54.509804%,41.568627%,30.980392%);fill-opacity:1;" d="M 80.617188 55.484375 C 80.964844 55.574219 81.167969 55.824219 81.226562 56.242188 C 81.175781 56.492188 81.125 56.746094 81.074219 56.996094 C 80.6875 56.570312 80.535156 56.070312 80.617188 55.484375 Z M 80.617188 55.484375 "/>
<path style=" stroke:none;fill-rule:evenodd;fill:rgb(74.901961%,53.72549%,36.862745%);fill-opacity:1;" d="M 75.757812 55.484375 C 76.316406 55.671875 76.671875 56.078125 76.820312 56.695312 C 76.9375 58.84375 76.835938 60.960938 76.519531 63.042969 C 77.167969 63.582031 77.925781 63.785156 78.796875 63.648438 C 78.847656 64.050781 78.746094 64.402344 78.492188 64.707031 C 77.71875 64.90625 76.960938 64.855469 76.214844 64.554688 C 74.148438 65.644531 73.339844 65.039062 73.785156 62.742188 C 75.566406 60.644531 76.222656 58.226562 75.757812 55.484375 Z M 75.757812 55.484375 "/>
<path style=" stroke:none;fill-rule:evenodd;fill:rgb(41.960784%,32.941176%,25.490196%);fill-opacity:1;" d="M 86.992188 51.554688 C 87.378906 51.761719 87.378906 52.015625 86.992188 52.308594 C 84.8125 53.957031 82.382812 54.609375 79.707031 54.277344 C 82.488281 54.195312 84.917969 53.285156 86.992188 51.554688 Z M 86.992188 51.554688 "/>
<path style=" stroke:none;fill-rule:evenodd;fill:rgb(19.607843%,17.254902%,15.294118%);fill-opacity:1;" d="M 65.132812 51.554688 C 67.484375 51.363281 69.710938 51.566406 71.8125 52.160156 C 69.640625 52.410156 67.414062 52.5625 65.132812 52.613281 C 64.714844 52.734375 64.308594 52.886719 63.917969 53.066406 C 63.796875 52.265625 64.203125 51.761719 65.132812 51.554688 Z M 65.132812 51.554688 "/>
<path style=" stroke:none;fill-rule:evenodd;fill:rgb(42.352941%,32.941176%,25.490196%);fill-opacity:1;" d="M 65.132812 51.554688 C 67.402344 51.253906 69.730469 51.152344 72.117188 51.253906 C 72.1875 51.640625 72.085938 51.945312 71.8125 52.160156 C 69.710938 51.566406 67.484375 51.363281 65.132812 51.554688 Z M 65.132812 51.554688 "/>
<path style=" stroke:none;fill-rule:evenodd;fill:rgb(21.176471%,18.039216%,16.078431%);fill-opacity:1;" d="M 81.832031 47.320312 C 83.917969 47.160156 85.941406 47.410156 87.90625 48.078125 C 84.523438 48.265625 81.285156 49.019531 78.1875 50.34375 C 78.109375 49.898438 78.210938 49.496094 78.492188 49.136719 C 79.625 48.527344 80.738281 47.921875 81.832031 47.320312 Z M 81.832031 47.320312 "/>
<path style=" stroke:none;fill-rule:evenodd;fill:rgb(82.745098%,45.490196%,44.313725%);fill-opacity:1;" d="M 83.351562 68.789062 C 80.972656 69.023438 78.644531 69.476562 76.367188 70.148438 C 76.003906 70.359375 75.699219 70.613281 75.457031 70.90625 C 75.457031 70.402344 75.457031 69.898438 75.457031 69.394531 C 76.417969 68.097656 77.734375 67.492188 79.402344 67.578125 C 80.859375 67.628906 82.175781 68.03125 83.351562 68.789062 Z M 83.351562 68.789062 "/>
<path style=" stroke:none;fill-rule:evenodd;fill:rgb(74.901961%,38.431373%,37.254902%);fill-opacity:1;" d="M 83.351562 68.789062 C 82.175781 71.816406 79.949219 73.179688 76.671875 72.871094 C 75.390625 72.667969 74.984375 72.015625 75.457031 70.90625 C 75.699219 70.613281 76.003906 70.359375 76.367188 70.148438 C 78.644531 69.476562 80.972656 69.023438 83.351562 68.789062 Z M 83.351562 68.789062 "/>
<path style=" stroke:none;fill-rule:evenodd;fill:rgb(18.823529%,31.764706%,33.72549%);fill-opacity:1;" d="M 75.457031 69.394531 C 75.457031 69.898438 75.457031 70.402344 75.457031 70.90625 C 74.847656 71.460938 74.140625 71.613281 73.328125 71.359375 C 72.90625 70.425781 73.109375 69.617188 73.9375 68.941406 C 74.542969 68.753906 75.050781 68.90625 75.457031 69.394531 Z M 75.457031 69.394531 "/>
<path style=" stroke:none;fill-rule:evenodd;fill:rgb(78.431373%,57.254902%,39.607843%);fill-opacity:1;" d="M 90.941406 68.488281 C 90.84375 69.539062 90.996094 70.546875 91.398438 71.511719 C 92.53125 72.492188 93.695312 73.398438 94.886719 74.230469 C 92.839844 76.425781 90.714844 78.589844 88.511719 80.734375 C 82.867188 85.183594 76.894531 85.6875 70.597656 82.246094 C 72.027344 80.71875 73.34375 79.105469 74.542969 77.40625 C 78.203125 78.402344 81.644531 77.898438 84.867188 75.894531 C 87.199219 73.628906 89.222656 71.160156 90.941406 68.488281 Z M 90.941406 68.488281 "/>
<path style=" stroke:none;fill-rule:evenodd;fill:rgb(80%,76.862745%,72.941176%);fill-opacity:1;" d="M 106.730469 76.347656 C 105.921875 77.15625 105.113281 77.960938 104.300781 78.769531 C 103.304688 78.980469 102.292969 79.082031 101.265625 79.070312 C 101.265625 78.464844 101.265625 77.859375 101.265625 77.257812 C 101.257812 74.558594 100.851562 71.9375 100.050781 69.394531 C 100.214844 69.375 100.316406 69.277344 100.355469 69.09375 C 99.289062 65 99.742188 61.066406 101.71875 57.300781 C 104.015625 53.703125 104.925781 49.773438 104.453125 45.507812 C 102.835938 39.410156 100.253906 33.765625 96.710938 28.574219 C 96.761719 28.472656 96.8125 28.371094 96.863281 28.273438 C 100.191406 32.890625 102.722656 37.929688 104.453125 43.390625 C 105.496094 47.074219 105.296875 50.703125 103.847656 54.277344 C 101.417969 58.195312 100.304688 62.429688 100.507812 66.976562 C 101.359375 70.890625 103.433594 74.015625 106.730469 76.347656 Z M 106.730469 76.347656 "/>
<path style=" stroke:none;fill-rule:evenodd;fill:rgb(18.431373%,30.588235%,32.156863%);fill-opacity:1;" d="M 56.628906 71.207031 C 56.050781 73.007812 54.835938 73.714844 52.984375 73.324219 C 53.53125 72.628906 54.136719 71.976562 54.808594 71.359375 C 55.433594 70.894531 56.042969 70.84375 56.628906 71.207031 Z M 56.628906 71.207031 "/>
<path style=" stroke:none;fill-rule:evenodd;fill:rgb(32.156863%,29.411765%,27.45098%);fill-opacity:1;" d="M 67.5625 71.207031 C 67.726562 71.226562 67.828125 71.328125 67.863281 71.511719 C 67.632812 71.894531 67.433594 71.894531 67.257812 71.511719 C 67.257812 71.308594 67.359375 71.207031 67.5625 71.207031 Z M 67.5625 71.207031 "/>
<path style=" stroke:none;fill-rule:evenodd;fill:rgb(78.431373%,57.254902%,40%);fill-opacity:1;" d="M 67.5625 71.207031 C 68.195312 71.675781 68.902344 72.332031 69.6875 73.175781 C 68.714844 74.042969 67.851562 75 67.105469 76.046875 C 66.667969 76.636719 66.113281 77.039062 65.433594 77.257812 C 64.898438 77.277344 64.59375 77.023438 64.523438 76.5 C 65.40625 74.789062 66.316406 73.125 67.257812 71.511719 C 67.433594 71.894531 67.632812 71.894531 67.863281 71.511719 C 67.828125 71.328125 67.726562 71.226562 67.5625 71.207031 Z M 67.5625 71.207031 "/>
<path style=" stroke:none;fill-rule:evenodd;fill:rgb(80%,45.882353%,31.764706%);fill-opacity:1;" d="M 59.058594 74.230469 C 59.109375 74.945312 59.058594 75.648438 58.90625 76.347656 C 58.292969 76.90625 57.738281 77.511719 57.238281 78.164062 C 56.996094 76.953125 56.792969 75.742188 56.628906 74.535156 C 57.417969 74.304688 58.226562 74.203125 59.058594 74.230469 Z M 59.058594 74.230469 "/>
<path style=" stroke:none;fill-rule:evenodd;fill:rgb(18.039216%,31.372549%,33.333333%);fill-opacity:1;" d="M 73.328125 74.230469 C 74.128906 74.167969 74.632812 74.523438 74.847656 75.289062 C 74.628906 76.164062 74.121094 76.820312 73.328125 77.257812 C 72.824219 77.15625 72.519531 76.851562 72.417969 76.347656 C 72.644531 75.601562 72.945312 74.894531 73.328125 74.230469 Z M 73.328125 74.230469 "/>
<path style=" stroke:none;fill-rule:evenodd;fill:rgb(8.627451%,16.078431%,21.176471%);fill-opacity:1;" d="M 23.835938 73.929688 C 25.886719 77.207031 27.453125 80.734375 28.542969 84.511719 C 31.492188 89.511719 35.894531 92.230469 41.75 92.675781 C 41.75 92.777344 41.75 92.878906 41.75 92.980469 C 40.519531 96.210938 39.253906 99.433594 37.957031 102.65625 C 36.359375 107.878906 35.855469 113.222656 36.4375 118.679688 C 36.699219 119.65625 37.054688 120.566406 37.5 121.402344 C 37.394531 124.902344 38.105469 128.230469 39.625 131.378906 C 35.792969 131.980469 31.84375 132.179688 27.785156 131.984375 C 22.753906 112.886719 21.4375 93.535156 23.835938 73.929688 Z M 23.835938 73.929688 "/>
<path style=" stroke:none;fill-rule:evenodd;fill:rgb(78.039216%,57.254902%,39.607843%);fill-opacity:1;" d="M 51.164062 75.140625 C 51.28125 79.304688 52.039062 83.335938 53.441406 87.234375 C 53.644531 88.34375 53.644531 89.453125 53.441406 90.558594 C 51.71875 95.808594 49.492188 100.847656 46.761719 105.679688 C 42.652344 110.332031 39.566406 115.574219 37.5 121.402344 C 37.054688 120.566406 36.699219 119.65625 36.4375 118.679688 C 35.855469 113.222656 36.359375 107.878906 37.957031 102.65625 C 39.253906 99.433594 40.519531 96.210938 41.75 92.980469 C 42.023438 92.742188 42.226562 92.4375 42.359375 92.070312 C 42.359375 91.871094 42.359375 91.667969 42.359375 91.46875 C 42.613281 91.113281 42.816406 90.710938 42.964844 90.257812 C 43.617188 88.511719 44.324219 86.796875 45.089844 85.117188 C 46.042969 83.421875 47.007812 81.710938 47.976562 79.976562 C 49.269531 78.453125 50.332031 76.839844 51.164062 75.140625 Z M 51.164062 75.140625 "/>
<path style=" stroke:none;fill-rule:evenodd;fill:rgb(65.098039%,67.058824%,57.647059%);fill-opacity:1;" d="M 40.839844 76.347656 C 41.007812 81.105469 41.714844 85.742188 42.964844 90.257812 C 42.816406 90.710938 42.613281 91.113281 42.359375 91.46875 C 41.648438 87.035156 40.941406 82.597656 40.234375 78.164062 C 40.433594 77.558594 40.636719 76.953125 40.839844 76.347656 Z M 40.839844 76.347656 "/>
<path style=" stroke:none;fill-rule:evenodd;fill:rgb(79.215686%,77.647059%,74.901961%);fill-opacity:1;" d="M 123.734375 83.605469 C 124.890625 83.984375 124.890625 84.289062 123.734375 84.511719 C 123.734375 84.210938 123.734375 83.90625 123.734375 83.605469 Z M 123.734375 83.605469 "/>
<path style=" stroke:none;fill-rule:evenodd;fill:rgb(16.862745%,30.196078%,32.156863%);fill-opacity:1;" d="M 75.757812 84.816406 C 76.0625 84.816406 76.367188 84.816406 76.671875 84.816406 C 76.902344 86.449219 76.195312 87.054688 74.542969 86.628906 C 74.59375 85.777344 74.996094 85.171875 75.757812 84.816406 Z M 75.757812 84.816406 "/>
<path style=" stroke:none;fill-rule:evenodd;fill:rgb(78.823529%,57.647059%,40%);fill-opacity:1;" d="M 69.382812 89.652344 C 69.546875 89.671875 69.648438 89.773438 69.6875 89.957031 C 67.207031 94.289062 65.535156 98.925781 64.675781 103.863281 C 63.714844 105.933594 62.398438 107.746094 60.730469 109.308594 C 61.546875 104.53125 62.660156 99.792969 64.070312 95.097656 C 65.902344 93.320312 67.671875 91.507812 69.382812 89.652344 Z M 69.382812 89.652344 "/>
<path style=" stroke:none;fill-rule:evenodd;fill:rgb(52.156863%,53.72549%,54.117647%);fill-opacity:1;" d="M 26.871094 91.769531 C 27.429688 91.8125 27.53125 92.011719 27.175781 92.375 C 26.933594 92.234375 26.832031 92.035156 26.871094 91.769531 Z M 26.871094 91.769531 "/>
<path style=" stroke:none;fill-rule:evenodd;fill:rgb(59.607843%,61.176471%,50.588235%);fill-opacity:1;" d="M 41.449219 91.46875 C 41.75 91.667969 42.054688 91.871094 42.359375 92.070312 C 42.226562 92.4375 42.023438 92.742188 41.75 92.980469 C 41.75 92.878906 41.75 92.777344 41.75 92.675781 C 41.527344 92.3125 41.425781 91.910156 41.449219 91.46875 Z M 41.449219 91.46875 "/>
<path style=" stroke:none;fill-rule:evenodd;fill:rgb(41.960784%,45.098039%,46.666667%);fill-opacity:1;" d="M 34.765625 98.421875 C 35.324219 98.464844 35.425781 98.664062 35.070312 99.027344 C 34.828125 98.886719 34.726562 98.6875 34.765625 98.421875 Z M 34.765625 98.421875 "/>
<path style=" stroke:none;fill-rule:evenodd;fill:rgb(13.72549%,22.352941%,28.235294%);fill-opacity:1;" d="M 82.742188 101.445312 C 82.128906 101.398438 81.519531 101.445312 80.921875 101.597656 C 82.152344 101.835938 83.367188 102.140625 84.566406 102.503906 C 80.644531 103.410156 76.699219 103.511719 72.722656 102.804688 C 71.804688 102.632812 70.992188 102.28125 70.292969 101.746094 C 70.832031 101.414062 71.441406 101.164062 72.117188 100.992188 C 75.722656 100.710938 79.265625 100.863281 82.742188 101.445312 Z M 82.742188 101.445312 "/>
<path style=" stroke:none;fill-rule:evenodd;fill:rgb(10.196078%,16.862745%,21.960784%);fill-opacity:1;" d="M 82.742188 101.445312 C 83.753906 101.648438 84.765625 101.847656 85.78125 102.050781 C 85.78125 102.554688 85.78125 103.058594 85.78125 103.5625 C 85.78125 104.367188 85.78125 105.175781 85.78125 105.980469 C 81.75 106.539062 77.699219 106.691406 73.632812 106.433594 C 72.242188 106.316406 70.925781 105.960938 69.6875 105.375 C 69.507812 104.023438 69.710938 102.816406 70.292969 101.746094 C 70.992188 102.28125 71.804688 102.632812 72.722656 102.804688 C 76.699219 103.511719 80.644531 103.410156 84.566406 102.503906 C 83.367188 102.140625 82.152344 101.835938 80.921875 101.597656 C 81.519531 101.445312 82.128906 101.398438 82.742188 101.445312 Z M 82.742188 101.445312 "/>
<path style=" stroke:none;fill-rule:evenodd;fill:rgb(49.019608%,44.705882%,36.862745%);fill-opacity:1;" d="M 86.386719 103.863281 C 86.585938 104.449219 86.683594 105.054688 86.691406 105.679688 C 86.347656 105.570312 86.144531 105.167969 86.082031 104.46875 C 86.097656 104.191406 86.195312 103.992188 86.386719 103.863281 Z M 86.386719 103.863281 "/>
<path style=" stroke:none;fill-rule:evenodd;fill:rgb(64.313725%,4.313725%,4.313725%);fill-opacity:1;" d="M 15.941406 102.351562 C 16.5625 105.945312 18.6875 108.113281 22.316406 108.855469 C 18.890625 109.746094 16.816406 111.914062 16.09375 115.355469 C 15.132812 111.980469 12.957031 109.8125 9.566406 108.855469 C 13.171875 108.132812 15.296875 105.96875 15.941406 102.351562 Z M 15.941406 102.351562 "/>
<path style=" stroke:none;fill-rule:evenodd;fill:rgb(74.509804%,54.117647%,36.862745%);fill-opacity:1;" d="M 85.78125 103.5625 C 86.082031 103.511719 86.28125 103.609375 86.386719 103.863281 C 86.195312 103.992188 86.097656 104.191406 86.082031 104.46875 C 86.144531 105.167969 86.347656 105.570312 86.691406 105.679688 C 87.054688 106.503906 87.511719 107.3125 88.058594 108.097656 C 88.15625 109.40625 88.257812 110.71875 88.359375 112.027344 C 89.25 113.019531 89.605469 114.128906 89.421875 115.355469 C 88.144531 114.179688 86.828125 113.019531 85.476562 111.878906 C 85.644531 111.761719 85.746094 111.609375 85.78125 111.425781 C 85.78125 109.609375 85.78125 107.796875 85.78125 105.980469 C 85.78125 105.175781 85.78125 104.367188 85.78125 103.5625 Z M 85.78125 103.5625 "/>
<path style=" stroke:none;fill-rule:evenodd;fill:rgb(95.686275%,90.588235%,80%);fill-opacity:1;" d="M 69.6875 105.375 C 70.925781 105.960938 72.242188 106.316406 73.632812 106.433594 C 77.699219 106.691406 81.75 106.539062 85.78125 105.980469 C 85.78125 107.796875 85.78125 109.609375 85.78125 111.425781 C 85.027344 111.199219 84.316406 110.898438 83.652344 110.515625 C 83.355469 109.570312 83.253906 108.5625 83.351562 107.492188 C 79.375 107.992188 75.425781 107.890625 71.507812 107.191406 C 71.222656 107.511719 71.125 107.917969 71.203125 108.398438 C 71.386719 111.601562 71.1875 114.726562 70.597656 117.773438 C 70.289062 118.386719 70.386719 118.988281 70.902344 119.589844 C 71.628906 120.96875 72.539062 122.230469 73.632812 123.367188 C 72.03125 123.320312 70.613281 122.765625 69.382812 121.703125 C 69.28125 119.589844 69.179688 117.472656 69.078125 115.355469 C 69.035156 111.96875 69.238281 108.640625 69.6875 105.375 Z M 69.6875 105.375 "/>
<path style=" stroke:none;fill-rule:evenodd;fill:rgb(76.862745%,43.529412%,29.803922%);fill-opacity:1;" d="M 106.730469 79.976562 C 107.640625 79.875 108.347656 80.179688 108.855469 80.882812 C 107.476562 82.316406 106.3125 83.929688 105.363281 85.722656 C 101.941406 94.390625 101.941406 103.058594 105.363281 111.726562 C 105.386719 114.777344 105.640625 117.800781 106.125 120.796875 C 105.945312 123.492188 105.339844 126.113281 104.300781 128.660156 C 103.675781 128.601562 103.066406 128.453125 102.480469 128.207031 C 100.753906 127.042969 98.933594 126.035156 97.015625 125.183594 C 96.050781 124.472656 95.140625 123.71875 94.28125 122.914062 C 97.902344 119.347656 100.636719 115.164062 102.480469 110.367188 C 101.855469 109.613281 101.398438 108.753906 101.113281 107.796875 C 99.753906 100.710938 100.257812 93.753906 102.632812 86.933594 C 103.386719 84.214844 104.75 81.898438 106.730469 79.976562 Z M 106.730469 79.976562 "/>
<path style=" stroke:none;fill-rule:evenodd;fill:rgb(69.411765%,68.627451%,67.45098%);fill-opacity:1;" d="M 128.898438 106.585938 C 129.199219 106.585938 129.503906 106.585938 129.808594 106.585938 C 129.808594 106.886719 129.808594 107.191406 129.808594 107.492188 C 129.503906 107.492188 129.199219 107.492188 128.898438 107.492188 C 128.898438 107.191406 128.898438 106.886719 128.898438 106.585938 Z M 128.898438 106.585938 "/>
<path style=" stroke:none;fill-rule:evenodd;fill:rgb(37.647059%,40.392157%,40%);fill-opacity:1;" d="M 71.507812 107.191406 C 75.425781 107.890625 79.375 107.992188 83.351562 107.492188 C 83.253906 108.5625 83.355469 109.570312 83.652344 110.515625 C 83.652344 110.617188 83.652344 110.71875 83.652344 110.820312 C 83.25 110.820312 82.84375 110.820312 82.4375 110.820312 C 82.976562 110.015625 83.179688 109.105469 83.046875 108.097656 C 80.921875 108.179688 78.796875 108.28125 76.671875 108.398438 C 75.011719 108.4375 73.390625 108.238281 71.8125 107.796875 C 71.558594 107.691406 71.457031 107.492188 71.507812 107.191406 Z M 71.507812 107.191406 "/>
<path style=" stroke:none;fill-rule:evenodd;fill:rgb(95.294118%,90.588235%,79.607843%);fill-opacity:1;" d="M 71.8125 107.796875 C 73.390625 108.238281 75.011719 108.4375 76.671875 108.398438 C 78.796875 108.28125 80.921875 108.179688 83.046875 108.097656 C 83.179688 109.105469 82.976562 110.015625 82.4375 110.820312 C 82.082031 111.683594 82.082031 112.589844 82.4375 113.539062 C 82.4375 114.953125 82.4375 116.363281 82.4375 117.773438 C 81.695312 117.503906 81.496094 117.050781 81.832031 116.414062 C 81.070312 116.148438 80.460938 115.691406 80.011719 115.050781 C 79.957031 114.652344 80.058594 114.300781 80.3125 113.992188 C 79.359375 113.410156 79.15625 113.664062 79.707031 114.75 C 79.148438 114.246094 78.539062 113.792969 77.882812 113.390625 C 77.410156 113.15625 77.003906 113.207031 76.671875 113.539062 C 76.023438 113.433594 75.617188 113.6875 75.457031 114.296875 C 75.917969 115.734375 76.527344 117.09375 77.277344 118.378906 C 76.445312 118.410156 75.636719 118.308594 74.847656 118.074219 C 74.492188 117.769531 74.289062 117.367188 74.242188 116.867188 C 73.941406 116.175781 73.433594 115.671875 72.722656 115.355469 C 72.507812 115.082031 72.203125 114.980469 71.8125 115.050781 C 71.8125 112.632812 71.8125 110.214844 71.8125 107.796875 Z M 71.8125 107.796875 "/>
<path style=" stroke:none;fill-rule:evenodd;fill:rgb(65.098039%,63.921569%,58.039216%);fill-opacity:1;" d="M 71.507812 107.191406 C 71.457031 107.492188 71.558594 107.691406 71.8125 107.796875 C 71.8125 110.214844 71.8125 112.632812 71.8125 115.050781 C 72.203125 114.980469 72.507812 115.082031 72.722656 115.355469 C 72.28125 115.335938 71.875 115.433594 71.507812 115.65625 C 71.605469 113.183594 71.503906 110.761719 71.203125 108.398438 C 71.125 107.917969 71.222656 107.511719 71.507812 107.191406 Z M 71.507812 107.191406 "/>
<path style=" stroke:none;fill-rule:evenodd;fill:rgb(50.980392%,47.843137%,42.352941%);fill-opacity:1;" d="M 77.582031 110.214844 C 77.960938 109.589844 78.46875 109.492188 79.097656 109.910156 C 78.65625 109.855469 78.148438 109.953125 77.582031 110.214844 Z M 77.582031 110.214844 "/>
<path style=" stroke:none;fill-rule:evenodd;fill:rgb(18.431373%,30.980392%,32.54902%);fill-opacity:1;" d="M 82.4375 110.820312 C 82.84375 110.820312 83.25 110.820312 83.652344 110.820312 C 84.964844 111.808594 84.863281 112.613281 83.351562 113.238281 C 82.539062 112.65625 82.234375 111.851562 82.4375 110.820312 Z M 82.4375 110.820312 "/>
<path style=" stroke:none;fill-rule:evenodd;fill:rgb(55.686275%,52.54902%,46.27451%);fill-opacity:1;" d="M 77.582031 110.214844 C 77.285156 110.613281 76.980469 111.015625 76.671875 111.425781 C 77.167969 111.78125 77.671875 111.78125 78.1875 111.425781 C 78.414062 111.984375 78.71875 112.183594 79.097656 112.027344 C 78.125 112.417969 77.164062 112.417969 76.214844 112.027344 C 75.960938 112.332031 75.707031 112.632812 75.457031 112.9375 C 75.105469 112.25 75.054688 111.546875 75.304688 110.820312 C 75.40625 111.222656 75.507812 111.625 75.605469 112.027344 C 76.074219 111.183594 76.730469 110.578125 77.582031 110.214844 Z M 77.582031 110.214844 "/>
<path style=" stroke:none;fill-rule:evenodd;fill:rgb(77.647059%,43.921569%,30.196078%);fill-opacity:1;" d="M 79.097656 130.777344 C 78.003906 131.175781 76.789062 131.378906 75.457031 131.378906 C 70.902344 131.203125 66.347656 131.050781 61.792969 130.925781 C 60.046875 130.4375 58.324219 129.832031 56.628906 129.113281 C 55.570312 128.320312 55.066406 127.261719 55.113281 125.9375 C 56.792969 121.117188 58.414062 116.277344 59.96875 111.425781 C 64.347656 119.914062 70.722656 126.367188 79.097656 130.777344 Z M 79.097656 130.777344 "/>
<path style=" stroke:none;fill-rule:evenodd;fill:rgb(18.823529%,31.372549%,32.941176%);fill-opacity:1;" d="M 76.671875 113.539062 C 77.699219 113.605469 78.304688 114.160156 78.492188 115.203125 C 77.378906 116.761719 76.671875 116.613281 76.367188 114.75 C 76.402344 114.320312 76.503906 113.917969 76.671875 113.539062 Z M 76.671875 113.539062 "/>
<path style=" stroke:none;fill-rule:evenodd;fill:rgb(39.607843%,36.470588%,32.156863%);fill-opacity:1;" d="M 80.011719 115.050781 C 79.808594 115.050781 79.707031 114.953125 79.707031 114.75 C 79.15625 113.664062 79.359375 113.410156 80.3125 113.992188 C 80.058594 114.300781 79.957031 114.652344 80.011719 115.050781 Z M 80.011719 115.050781 "/>
<path style=" stroke:none;fill-rule:evenodd;fill:rgb(40%,37.254902%,33.333333%);fill-opacity:1;" d="M 74.242188 113.238281 C 74.753906 113.445312 75.054688 113.847656 75.152344 114.449219 C 74.902344 114.933594 74.496094 115.136719 73.9375 115.050781 C 73.882812 114.410156 73.984375 113.804688 74.242188 113.238281 Z M 74.242188 113.238281 "/>
<path style=" stroke:none;fill-rule:evenodd;fill:rgb(18.431373%,30.980392%,32.54902%);fill-opacity:1;" d="M 72.722656 115.355469 C 72.921875 115.953125 73.125 116.558594 73.328125 117.167969 C 73.261719 117.898438 72.859375 118.203125 72.117188 118.074219 C 71.589844 117.375 71.390625 116.566406 71.507812 115.65625 C 71.875 115.433594 72.28125 115.335938 72.722656 115.355469 Z M 72.722656 115.355469 "/>
<path style=" stroke:none;fill-rule:evenodd;fill:rgb(46.27451%,47.45098%,45.882353%);fill-opacity:1;" d="M 82.4375 113.539062 C 82.710938 113.78125 82.914062 114.082031 83.046875 114.449219 C 83.046875 115.757812 83.046875 117.066406 83.046875 118.378906 C 82.640625 118.378906 82.4375 118.175781 82.4375 117.773438 C 82.4375 116.363281 82.4375 114.953125 82.4375 113.539062 Z M 82.4375 113.539062 "/>
<path style=" stroke:none;fill-rule:evenodd;fill:rgb(38.039216%,35.294118%,31.372549%);fill-opacity:1;" d="M 74.242188 116.867188 C 74.195312 116.546875 74.246094 116.246094 74.394531 115.960938 C 74.816406 117.101562 75.117188 117.101562 75.304688 115.960938 C 75.453125 116.351562 75.503906 116.753906 75.457031 117.167969 C 75.011719 117.1875 74.609375 117.089844 74.242188 116.867188 Z M 74.242188 116.867188 "/>
<path style=" stroke:none;fill-rule:evenodd;fill:rgb(95.686275%,90.588235%,79.607843%);fill-opacity:1;" d="M 83.046875 114.449219 C 84.234375 115.574219 84.941406 116.933594 85.171875 118.53125 C 85.121094 119.082031 85.070312 119.636719 85.019531 120.191406 C 84.210938 119.738281 83.554688 119.136719 83.046875 118.378906 C 83.046875 117.066406 83.046875 115.757812 83.046875 114.449219 Z M 83.046875 114.449219 "/>
<path style=" stroke:none;fill-rule:evenodd;fill:rgb(65.882353%,65.882353%,64.705882%);fill-opacity:1;" d="M 28.695312 117.167969 C 29.253906 117.210938 29.351562 117.414062 28.996094 117.773438 C 28.753906 117.636719 28.65625 117.433594 28.695312 117.167969 Z M 28.695312 117.167969 "/>
<path style=" stroke:none;fill-rule:evenodd;fill:rgb(48.627451%,42.745098%,36.470588%);fill-opacity:1;" d="M 71.203125 108.398438 C 71.503906 110.761719 71.605469 113.183594 71.507812 115.65625 C 71.390625 116.566406 71.589844 117.375 72.117188 118.074219 C 71.914062 118.480469 71.710938 118.882812 71.507812 119.285156 C 71.683594 118.445312 71.382812 117.9375 70.597656 117.773438 C 71.1875 114.726562 71.386719 111.601562 71.203125 108.398438 Z M 71.203125 108.398438 "/>
<path style=" stroke:none;fill-rule:evenodd;fill:rgb(21.960784%,32.941176%,33.333333%);fill-opacity:1;" d="M 70.597656 117.773438 C 71.382812 117.9375 71.683594 118.445312 71.507812 119.285156 C 71.402344 119.539062 71.203125 119.640625 70.902344 119.589844 C 70.386719 118.988281 70.289062 118.386719 70.597656 117.773438 Z M 70.597656 117.773438 "/>
<path style=" stroke:none;fill-rule:evenodd;fill:rgb(56.470588%,52.941176%,46.27451%);fill-opacity:1;" d="M 74.847656 118.074219 C 75.636719 118.308594 76.445312 118.410156 77.277344 118.378906 C 77.480469 118.378906 77.582031 118.480469 77.582031 118.679688 C 76.769531 118.679688 75.960938 118.679688 75.152344 118.679688 C 74.898438 118.578125 74.796875 118.375 74.847656 118.074219 Z M 74.847656 118.074219 "/>
<path style=" stroke:none;fill-rule:evenodd;fill:rgb(90.980392%,86.666667%,76.470588%);fill-opacity:1;" d="M 75.152344 118.679688 C 75.960938 118.679688 76.769531 118.679688 77.582031 118.679688 C 78.15625 119.125 78.664062 119.628906 79.097656 120.191406 C 78.085938 120.191406 77.074219 120.191406 76.0625 120.191406 C 75.683594 119.738281 75.378906 119.234375 75.152344 118.679688 Z M 75.152344 118.679688 "/>
<path style=" stroke:none;fill-rule:evenodd;fill:rgb(22.352941%,26.666667%,29.019608%);fill-opacity:1;" d="M 76.0625 120.191406 C 77.074219 120.191406 78.085938 120.191406 79.097656 120.191406 C 79.355469 120.296875 79.453125 120.496094 79.402344 120.796875 C 78.492188 120.796875 77.582031 120.796875 76.671875 120.796875 C 76.367188 120.695312 76.164062 120.496094 76.0625 120.191406 Z M 76.0625 120.191406 "/>
<path style=" stroke:none;fill-rule:evenodd;fill:rgb(95.686275%,89.803922%,78.823529%);fill-opacity:1;" d="M 76.671875 120.796875 C 77.582031 120.796875 78.492188 120.796875 79.402344 120.796875 C 79.875 121.675781 80.484375 122.484375 81.226562 123.214844 C 79.203125 123.445312 77.6875 122.640625 76.671875 120.796875 Z M 76.671875 120.796875 "/>
<path style=" stroke:none;fill-rule:evenodd;fill:rgb(14.509804%,18.431373%,22.352941%);fill-opacity:1;" d="M 106.125 120.796875 C 106.496094 123.839844 107.003906 126.863281 107.640625 129.867188 C 106.414062 129.699219 105.300781 129.292969 104.300781 128.660156 C 105.339844 126.113281 105.945312 123.492188 106.125 120.796875 Z M 106.125 120.796875 "/>
<path style=" stroke:none;fill-rule:evenodd;fill:rgb(10.588235%,16.862745%,21.568627%);fill-opacity:1;" d="M 54.199219 127.148438 C 55.058594 128.453125 55.765625 129.863281 56.324219 131.378906 C 55.644531 131.777344 54.835938 131.980469 53.898438 131.984375 C 53.03125 131.984375 52.21875 131.882812 51.46875 131.683594 C 52.453125 130.222656 53.367188 128.710938 54.199219 127.148438 Z M 54.199219 127.148438 "/>
<path style=" stroke:none;fill-rule:evenodd;fill:rgb(74.117647%,54.901961%,38.823529%);fill-opacity:1;" d="M 55.113281 125.9375 C 55.066406 127.261719 55.570312 128.320312 56.628906 129.113281 C 58.324219 129.832031 60.046875 130.4375 61.792969 130.925781 C 66.347656 131.050781 70.902344 131.203125 75.457031 131.378906 C 76.789062 131.378906 78.003906 131.175781 79.097656 130.777344 C 79.855469 131.152344 80.667969 131.351562 81.527344 131.378906 C 82.636719 131.144531 83.75 131.09375 84.867188 131.230469 C 85.421875 131.429688 85.828125 131.78125 86.082031 132.289062 C 76.265625 132.289062 66.449219 132.289062 56.628906 132.289062 C 56.703125 131.898438 56.601562 131.59375 56.324219 131.378906 C 55.765625 129.863281 55.058594 128.453125 54.199219 127.148438 C 54.507812 126.730469 54.8125 126.328125 55.113281 125.9375 Z M 55.113281 125.9375 "/>
<path style=" stroke:none;fill-rule:evenodd;fill:rgb(61.176471%,61.568627%,61.176471%);fill-opacity:1;" d="M 34.160156 128.355469 C 34.71875 128.398438 34.820312 128.601562 34.464844 128.960938 C 34.222656 128.824219 34.121094 128.621094 34.160156 128.355469 Z M 34.160156 128.355469 "/>
<path style=" stroke:none;fill-rule:evenodd;fill:rgb(14.117647%,29.411765%,32.156863%);fill-opacity:1;" d="M 39.625 131.378906 C 43.519531 132.082031 47.46875 132.183594 51.46875 131.683594 C 52.21875 131.882812 53.03125 131.984375 53.898438 131.984375 C 54.835938 131.980469 55.644531 131.777344 56.324219 131.378906 C 56.601562 131.59375 56.703125 131.898438 56.628906 132.289062 C 66.449219 132.289062 76.265625 132.289062 86.082031 132.289062 C 97.722656 132.289062 109.363281 132.289062 121.003906 132.289062 C 125.050781 132.289062 129.097656 132.289062 133.148438 132.289062 C 135.550781 132.191406 137.929688 132.292969 140.285156 132.589844 C 140.375 135.515625 140.527344 138.4375 140.738281 141.359375 C 140.726562 141.941406 140.625 142.496094 140.433594 143.023438 C 112.804688 143.355469 85.171875 143.507812 57.539062 143.476562 C 45.53125 143.371094 33.539062 143.070312 21.558594 142.566406 C 21.417969 142.746094 21.367188 142.949219 21.40625 143.171875 C 20.785156 139.507812 20.378906 135.78125 20.191406 131.984375 C 22.722656 131.984375 25.253906 131.984375 27.785156 131.984375 C 31.84375 132.179688 35.792969 131.980469 39.625 131.378906 Z M 39.625 131.378906 "/>
<path style=" stroke:none;fill-rule:evenodd;fill:rgb(10.196078%,23.137255%,25.490196%);fill-opacity:1;" d="M 69.382812 136.21875 C 92.964844 136.117188 116.550781 136.21875 140.132812 136.519531 C 100.859375 136.875 61.589844 136.921875 22.316406 136.671875 C 38.058594 136.621094 53.746094 136.46875 69.382812 136.21875 Z M 69.382812 136.21875 "/>
<use xlink:href="#surface14" mask="url(#mask3)"/>
</g>
</svg>
